<?xml version="1.0" encoding="utf-8"?><svg width="226" height="129" viewBox="0 0 226 129" xmlns="http://www.w3.org/2000/svg" xmlns:xlink="http://www.w3.org/1999/xlink"><svg width="152.25" height="50.13" viewBox="0 0 152.25 50.13" id="STEP1" y="49.81" xmlns="http://www.w3.org/2000/svg"><defs><style>.acls-1{fill:#374a97;fill-rule:evenodd}</style></defs><path id="aSTEP1" class="acls-1" d="M825.852 1207.42l.352.36.748.3H827l.66 1.28.353.57.4.62.308.57.4-.17-.132-.62-.044-.7-.308-2.87v-.08l-.044-.44-.088-.71-.044-.7-.044-.66-2.245.44-.881-.31-1.232-.27-1.321-.13-1.365.05-1.364.22-1.365.48-.66.4-.484.13-1.145.57-1.057.71-.836.88-.7 1.05-.484 1.19-.353 1.28-.088 1.01v.4h.044l.22 2.55 1.233 2.33 1.849 1.63 2.113 1.28 4.314 2.07 1.849 1.19 1.409 1.4.968 1.85.4 2.42-.088.89-.176 1.1-.308.96-.4.84-.528.75-.617.7-.836.62-1.057.31-1.628.13-1.629-.04-1.629-.22-1.409-.36-1.144-.44-.793-.44-.132.09-.66-2.24-.88-2.69-.309-.88-.4.04v.97l-.044.97v1.85l.044.88.088 2.29-.176.09.22.22.088 1.71 2.069-.35 1.409.35 1.717.27 1.849.09 1.893-.09 1.893-.4 1.716-.79.573-.44.176-.09 1.012-.7.881-.88.7-1.1.616-1.19.44-1.37.309-1.41-.529-3.34-1.408-2.64-1.981-1.94-2.2-1.41-4.4-2.15-1.761-1.02-1.277-1.14-.7-1.37-.176-1.89-.044-.97.088-.92.176-.84.352-.79.484-.75.66-.66.837-.66.4-.26.528-.14 1.145-.17h1.144l1.1.17 1.056.22.925.31.792.4zm22.089 29.89h9.465v-.92h-3.346v-30.99h4.84l.132.22.4 1.14.22.71.264.79 1.189 3.96.352 1.24.4-.09-.044-1.24v-1.18l-.044-2.07-.044-.93-.044-1.58-.044-.97v-.97h-17.966v.66l-.044.57v.71l-.044 1.58-.044.93-.044 2.07v1.18l-.044 1.24.4.09.353-1.24 1.188-3.96.264-.79.22-.71.4-1.14.132-.22h4.842v30.99h-3.3v.92zm43.617-32.75v-.13h-18v.97h3.342v30.99h-3.346v.92h18.709v-.08l.352.17.088-.44.044-.53.088-.57.044-.57.088-1.37.088-1.58v-.92l.088-.93-.4-.09-.264.93-.66 1.54-.617 1.32-.748 1.5-.264.35-.22.26.22.09h-10.474v-15.63h7.528l-.265.13.133.09.22.18.176.22.44.62.792 1.23.264.53.221.61.4-.13-.088-.57.044-1.19v-1.81l-.044-.22.044-.26v-2.99l-.044-.66.088-.71-.4-.09-.221.66-.792 1.63-.484.8-.44.57-.176.17-.133.09.309.13h-7.572v-14.39h9.553l.132.18.44.66.44.96 1.1 2.6.176.79.44-.04-.088-.84.044-.79.044-.75v-2.9l-.088-.8zm20.681 17.61v-16.77l3.786-.04 1.1.35 1.277.57 1.1.7.837.8.7.88.484 1.01.352 1.19.221 1.32.044 1.23-.044 1.32-.221 1.45-.308 1.28-.484 1.1-.616.97-.793.84-.968.74-1.145.62-1.188.44h-4.138zm3.3 14.22h-3.3v-13.25h4.094l1.585-.22 1.5-.4 1.365-.7 1.188-.93.969-1.14.792-1.36.617-1.55.4-1.76.176-1.45h.044v-.44h-.044l-.176-1.41-.44-1.63-.617-1.49-.88-1.28-1.1-1.1-1.276-.84-1.409-.57-1.585-.4-1.717-.13-1.452.09h-8.188v.97h3.3v30.99h-3.3v.92h9.464v-.92zm35.01-41.29v40.28h-9.97v1.38h24.167v-1.38h-9.971v-46.49l.067-.46.264-.93-.6-.19-.4.79-1.122 1.19-.6.46-.528.4-.594.39h-.132l-.661.33-1.122.4-.462.13-.331.13-2.509.79-1.056.27-2.377.66-1.321.2h-.711v1.45h9.838z" transform="translate(-812.5 -1187.31)"/></svg><svg width="153.56" height="49.81" viewBox="0 0 153.56 49.81" id="STEP2" xmlns="http://www.w3.org/2000/svg"><defs><style>.bcls-1{fill:#374a97;fill-rule:evenodd}</style></defs><path id="bSTEP2" class="bcls-1" d="M1100.85 1396.42l.35.36.75.3h.05l.66 1.28.35.57.39.62.31.57.4-.17-.13-.62-.05-.7-.31-2.87v-.08l-.04-.44-.09-.71-.04-.7-.05-.66-2.24.44-.88-.31-1.23-.27-1.32-.13-1.37.05-1.36.22-1.37.48-.66.4-.48.13-1.15.57-1.05.71-.84.88-.7 1.05-.49 1.19-.35 1.28-.09 1.01v.4h.05l.22 2.55 1.23 2.33 1.85 1.63 2.11 1.28 4.31 2.07 1.85 1.19 1.41 1.4.97 1.85.4 2.42-.09.89-.18 1.1-.31.96-.39.84-.53.75-.62.7-.83.62-1.06.31-1.63.13-1.63-.04-1.63-.22-1.4-.36-1.15-.44-.79-.44-.13.09-.66-2.24-.88-2.69-.31-.88-.4.04v.97l-.04.97v1.85l.04.88.09 2.29-.18.09.22.22.09 1.71 2.07-.35 1.41.35 1.72.27 1.84.09 1.9-.09 1.89-.4 1.72-.79.57-.44.18-.09 1.01-.7.88-.88.7-1.1.62-1.19.44-1.37.31-1.41-.53-3.34-1.41-2.64-1.98-1.94-2.2-1.41-4.4-2.15-1.76-1.02-1.28-1.14-.71-1.37-.17-1.89-.05-.97.09-.92.18-.84.35-.79.49-.75.66-.66.83-.66.4-.26.53-.14 1.14-.17h1.15l1.1.17 1.05.22.93.31.79.4zm22.09 29.89h9.47v-.92h-3.35v-30.99h4.84l.13.22.4 1.14.22.71.27.79 1.18 3.96.36 1.24.39-.09-.04-1.24v-1.18l-.05-2.07-.04-.93-.04-1.58-.05-.97v-.97h-17.96v.66l-.04.57v.71l-.05 1.58-.04.93-.04 2.07v1.18l-.05 1.24.4.09.35-1.24 1.19-3.96.26-.79.22-.71.4-1.14.13-.22h4.84v30.99h-3.3v.92zm43.62-32.75v-.13h-18.01v.97h3.35v30.99h-3.35v.92h18.71v-.08l.35.17.09-.44.05-.53.08-.57.05-.57.09-1.37.08-1.58v-.92l.09-.93-.39-.09-.27.93-.66 1.54-.61 1.32-.75 1.5-.27.35-.22.26.22.09h-10.47v-15.63h7.52l-.26.13.13.09.22.18.18.22.44.62.79 1.23.26.53.22.61.4-.13-.09-.57.05-1.19v-1.81l-.05-.22.05-.26v-2.99l-.05-.66.09-.71-.4-.09-.22.66-.79 1.63-.48.8-.44.57-.18.17-.13.09.31.13h-7.57v-14.39h9.55l.13.18.44.66.44.96 1.1 2.6.18.79.44-.04-.09-.84.04-.79.05-.75v-2.9l-.09-.8zm20.68 17.61v-16.77l3.78-.04 1.11.35 1.27.57 1.1.7.84.8.7.88.49 1.01.35 1.19.22 1.32.04 1.23-.04 1.32-.22 1.45-.31 1.28-.48 1.1-.62.97-.79.84-.97.74-1.14.62-1.19.44h-4.14zm3.3 14.22h-3.3v-13.25h4.09l1.59-.22 1.49-.4 1.37-.7 1.19-.93.97-1.14.79-1.36.61-1.55.4-1.76.18-1.45h.04v-.44h-.04l-.18-1.41-.44-1.63-.62-1.49-.88-1.28-1.1-1.1-1.27-.84-1.41-.57-1.59-.4-1.71-.13-1.46.09h-8.18v.97h3.3v30.99h-3.3v.92h9.46v-.92zm24.38.37h24.83v-.13l.2.07.46-2.71.06-.86.14-.92.13-.93.13-1.78.07-.99.13-.86-.6-.2-.39.8-.53.79-.99 1.52-1.06 1.98h-11.75l-2.25-.07-2.18.07h-2.37l13.34-16.38 2.37-3.3 1.85-2.84 1.45-2.71.93-2.7.59-2.84.27-2.97h-.07v-.07l-.92-4.16-2.18-3.24-3.04-2.24-3.5-1.19-3.63-.26-3.63.59-3.37 1.52-2.64 2.44-1.72 3.3-.13 3.97.66.06 1.25-3.3 1.79-2.38 2.24-1.65 2.71-.92 2.84-.33.86.13 1.25.46 1.32.53 1.19.66.99.73.86.86.66.85.53.93.39.99.2.92.07.93.06.2.14 1.58-.07 1.78-.4 2.12-.92 2.51-1.39 3.1-2.04 3.63-2.71 4.36-3.43 5.02-6.61 9.31h-.33l-.66 1.38-1.71 2.32.39.26z" transform="translate(-1087.5 -1376.63)"/></svg><svg width="43" height="22" viewBox="0 0 43 22" id="arrow" x="153.56" y="71.68" xmlns="http://www.w3.org/2000/svg"><defs><style>.ccls-1{fill:#374a97;fill-rule:evenodd}</style></defs><path id="carrow" class="ccls-1" d="M994.558 929.425a1.569 1.569 0 0 0-2.148 0l-18.89 18.1-18.928-18.1a1.569 1.569 0 0 0-2.148 0 1.409 1.409 0 0 0 0 2.055l19.965 19.1a1.518 1.518 0 0 0 1.074.425 1.585 1.585 0 0 0 1.074-.425l19.964-19.1a1.381 1.381 0 0 0 .037-2.055z" transform="translate(-952 -929)"/></svg><svg width="14" height="29.03" viewBox="0 0 14 29.03" id="fb" y="99.94" xmlns="http://www.w3.org/2000/svg"><defs><style>.dcls-1{fill:#374a97;fill-rule:evenodd}</style></defs><path id="dfb" class="dcls-1" d="M898.018 1363.61v4h-3.026v4.89h3.026v14.52h6.216v-14.52h4.17s.39-2.35.58-4.91h-4.727v-3.34a1.446 1.446 0 0 1 1.347-1.17h3.387v-5.09h-4.605c-6.522 0-6.368 4.89-6.368 5.62z" transform="translate(-895 -1358)"/></svg><svg width="26" height="23" viewBox="0 0 26 23" id="heart" x="14" y="99.94" xmlns="http://www.w3.org/2000/svg"><defs><style>.ecls-1{fill:#f85983;fill-rule:evenodd}</style></defs><path id="eheart" class="ecls-1" d="M404.083 3086s-21.628-14.96-9.27-22.25c6.146-2.8 9.175 3.41 9.175 3.41s3.176-6.28 9.175-3.41c12.358 7.65-9.08 22.25-9.08 22.25" transform="translate(-391 -3063)"/></svg><svg id="icon-bg" width="71.688" height="71.68" viewBox="0 0 71.688 71.68" x="153.56" xmlns="http://www.w3.org/2000/svg"><defs><style>.fcls-1{fill:#fff}.fcls-1,.fcls-3{stroke:#374a97;stroke-width:1px}.fcls-1,.fcls-2,.fcls-3{fill-rule:evenodd}.fcls-2{fill:#374a97}.fcls-3{fill:none}</style></defs><path id="f矩形_10_拷貝" data-name="矩形 10 拷貝" class="fcls-1" d="M539 3312.64l35.355 35.36L539 3383.36 503.645 3348z" transform="translate(-503.156 -3312.16)"/><path id="f矩形_10_拷貝_7" data-name="矩形 10 拷貝 7" class="fcls-2" d="M538.906 3317.4l2.568 2.58-2.568 2.58-2.568-2.58zm27.941 28.02l2.568 2.58-2.568 2.58-2.568-2.58zm-27.941 28.03l2.568 2.58-2.568 2.57-2.568-2.57zm-27.94-28.03l2.568 2.58-2.568 2.58-2.566-2.58z" transform="translate(-503.156 -3312.16)"/><path id="f矩形_10_拷貝_6" data-name="矩形 10 拷貝 6" class="fcls-3" d="M539 3312.93l7.071 7.07-7.071 7.07-7.071-7.07zm0 56l7.071 7.07-7.071 7.07-7.071-7.07zm-28-28l7.071 7.07-7.071 7.07-7.071-7.07zm56 0l7.071 7.07-7.071 7.07-7.071-7.07z" transform="translate(-503.156 -3312.16)"/></svg><svg width="14" height="11" viewBox="0 0 14 11" id="speaker" x="196.56" y="71.68" xmlns="http://www.w3.org/2000/svg"><defs><style>.gcls-1{fill:#fff;fill-rule:evenodd}</style></defs><path id="gspeaker" class="gcls-1" d="M811 4272.82a.619.619 0 0 1-.365.57.643.643 0 0 1-.27.06.665.665 0 0 1-.4-.14l-3.473-2.85h-1.849a.637.637 0 0 1-.635-.63v-2.51a.631.631 0 0 1 .635-.63h1.849l3.473-2.86a.637.637 0 0 1 .675-.08.619.619 0 0 1 .365.57v8.5zm2.441-.98h-.041a.628.628 0 0 1-.449-.18l-.085-.09a.624.624 0 0 1-.061-.82 3.639 3.639 0 0 0-.1-4.49.623.623 0 0 1 .044-.84l.085-.08a.615.615 0 0 1 .481-.19.672.672 0 0 1 .46.23 5.02 5.02 0 0 1 .132 6.21.645.645 0 0 1-.462.25zm2.626 1.95a.663.663 0 0 1-.459.22h-.027a.637.637 0 0 1-.449-.19l-.083-.08a.625.625 0 0 1-.037-.85 6.672 6.672 0 0 0-.112-8.77.624.624 0 0 1 .025-.86l.083-.08a.622.622 0 0 1 .469-.19.654.654 0 0 1 .456.21 8.045 8.045 0 0 1 .138 10.59z" transform="translate(-804 -4263)"/></svg></svg>